<?xml version="1.0" standalone="no"?>
<!DOCTYPE svg PUBLIC "-//W3C//DTD SVG 20010904//EN"
 "http://www.w3.org/TR/2001/REC-SVG-20010904/DTD/svg10.dtd">
<svg version="1.0" xmlns="http://www.w3.org/2000/svg"
 width="800.000000pt" height="800.000000pt" viewBox="0 0 800.000000 800.000000"
 preserveAspectRatio="xMidYMid meet">
<metadata>
Created by potrace 1.14, written by Peter Selinger 2001-2017
</metadata>
<g transform="translate(0.000000,800.000000) scale(0.100000,-0.100000)"
fill="#000000" stroke="none">
<path d="M2730 7745 c0 -7 30 -13 34 -7 3 4 -4 9 -15 9 -10 1 -19 0 -19 -2z"/>
<path d="M5176 7674 c-20 -20 -21 -44 0 -44 9 0 14 7 12 18 -1 9 1 23 5 30 11
17 2 15 -17 -4z"/>
<path d="M5254 7671 c0 -10 5 -17 12 -14 6 2 14 -5 17 -16 5 -21 37 -30 37
-12 0 16 -18 22 -23 9 -3 -7 -6 -4 -6 8 -1 19 -18 44 -31 44 -3 0 -6 -8 -6
-19z"/>
<path d="M5312 7661 c13 -16 29 -26 37 -23 11 4 9 7 -6 13 -11 4 -23 14 -26
23 -4 9 -11 16 -17 16 -7 0 -1 -13 12 -29z"/>
<path d="M5200 7664 c0 -14 31 -34 52 -33 23 0 23 0 2 9 -12 5 -25 13 -29 19
-6 12 -25 15 -25 5z"/>
<path d="M5133 7636 c18 -14 24 -32 7 -21 -5 3 -10 -2 -10 -11 0 -16 -1 -16
-18 -1 -23 21 -33 22 -26 3 7 -17 42 -28 50 -15 3 5 10 9 16 9 6 0 6 -6 -2
-15 -9 -11 -22 -14 -40 -10 -26 6 -27 4 -26 -29 2 -33 16 -65 16 -36 0 9 5 7
14 -6 8 -10 18 -15 22 -11 5 4 2 12 -6 17 -12 8 -11 10 5 11 11 1 25 2 30 4 6
1 16 3 23 3 6 1 12 6 12 11 0 13 -53 9 -63 -4 -5 -6 -7 -4 -4 5 2 9 13 14 25
12 12 -2 22 2 22 7 0 15 27 14 33 -1 3 -8 6 -6 6 5 1 9 -3 17 -9 17 -5 0 -10
5 -10 11 0 5 4 8 9 5 12 -8 71 4 71 14 0 5 -21 7 -47 5 -27 -2 -42 -1 -35 2 6
2 12 9 12 14 0 5 -9 4 -21 -3 -17 -11 -22 -10 -33 5 -7 9 -19 17 -27 17 -10
-1 -9 -4 4 -14z m51 -41 c3 -8 1 -15 -4 -15 -6 0 -10 7 -10 15 0 8 2 15 4 15
2 0 6 -7 10 -15z m-73 -58 c-10 -9 -11 -8 -5 6 3 10 9 15 12 12 3 -3 0 -11 -7
-18z"/>
<path d="M5351 7614 c0 -11 3 -14 6 -6 3 7 2 16 -1 19 -3 4 -6 -2 -5 -13z"/>
<path d="M5050 7601 c0 -5 7 -11 14 -14 10 -4 13 -1 9 9 -6 15 -23 19 -23 5z"/>
<path d="M5303 7595 c0 -8 3 -13 5 -10 3 3 10 1 16 -5 7 -5 17 -5 26 2 12 8
12 9 -3 4 -11 -3 -20 0 -23 9 -8 19 -21 19 -21 0z"/>
<path d="M5030 7582 c0 -6 5 -14 10 -17 6 -4 8 -10 5 -15 -3 -4 2 -7 10 -6 24
3 22 17 -2 34 -14 8 -23 10 -23 4z"/>
<path d="M5258 7583 c7 -3 16 -2 19 1 4 3 -2 6 -13 5 -11 0 -14 -3 -6 -6z"/>
<path d="M5168 7509 c-19 -11 -25 -39 -8 -39 5 0 7 7 4 15 -4 9 0 15 10 15 9
0 16 5 16 10 0 12 0 12 -22 -1z"/>
<path d="M5130 7440 c-7 -14 -7 -20 0 -20 5 0 10 6 10 14 0 8 6 17 13 19 9 4
9 6 0 6 -7 1 -17 -8 -23 -19z"/>
<path d="M5160 7430 c-9 -6 -10 -10 -3 -10 6 0 15 5 18 10 8 12 4 12 -15 0z"/>
<path d="M4777 4429 c7 -7 15 -10 18 -7 3 3 -2 9 -12 12 -14 6 -15 5 -6 -5z"/>
<path d="M4494 4415 c3 -8 1 -15 -5 -15 -6 0 -7 -5 -4 -11 9 -13 15 -7 20 20
2 11 -1 21 -7 21 -5 0 -8 -7 -4 -15z"/>
<path d="M4560 4411 c18 -15 21 -21 10 -21 -9 0 -21 5 -27 11 -9 9 -11 7 -6
-9 7 -27 28 -35 44 -16 10 12 13 12 25 -3 13 -16 13 -15 4 10 -7 21 -7 27 5
27 9 0 12 -6 9 -15 -5 -11 -2 -13 12 -8 13 5 15 3 9 -7 -5 -9 -4 -11 4 -6 9 6
9 11 1 21 -8 10 -7 14 2 18 7 2 -7 4 -32 4 -25 0 -54 3 -65 7 -16 6 -15 4 5
-13z"/>
<path d="M4735 4420 c-4 -6 -10 -8 -14 -6 -4 3 -8 -1 -8 -9 0 -12 3 -12 15 -3
11 10 13 8 10 -8 -2 -13 2 -18 15 -16 9 2 17 -2 17 -9 0 -8 3 -9 13 0 8 6 18
8 23 3 5 -4 -4 8 -20 26 -32 34 -41 38 -51 22z m40 -20 c21 -23 4 -27 -19 -4
-18 17 -20 24 -8 24 5 0 17 -9 27 -20z"/>
<path d="M4415 4410 c3 -5 8 -10 11 -10 2 0 4 5 4 10 0 6 -5 10 -11 10 -5 0
-7 -4 -4 -10z"/>
<path d="M4445 4410 c-3 -5 -1 -10 5 -10 6 0 8 -6 4 -12 -4 -7 -3 -9 1 -5 12
10 15 37 5 37 -5 0 -12 -4 -15 -10z"/>
<path d="M4860 4399 c0 -5 5 -7 10 -4 6 3 10 8 10 11 0 2 -4 4 -10 4 -5 0 -10
-5 -10 -11z"/>
<path d="M4955 4397 c-6 -7 -9 -22 -7 -34 3 -17 10 -23 28 -23 15 0 23 4 19
10 -4 6 -12 7 -18 3 -8 -5 -8 -2 1 9 7 8 10 23 6 32 -7 19 -15 20 -29 3z m25
-17 c0 -5 -2 -10 -4 -10 -3 0 -8 5 -11 10 -3 6 -1 10 4 10 6 0 11 -4 11 -10z"/>
<path d="M4830 4385 c-11 -13 -10 -14 4 -9 9 3 16 10 16 15 0 13 -6 11 -20 -6z"/>
<path d="M4890 4392 c0 -4 9 -8 20 -9 11 -1 20 2 20 5 0 4 -9 8 -20 9 -11 1
-20 -2 -20 -5z"/>
<path d="M4094 4377 c-3 -9 -2 -22 2 -29 13 -20 13 -38 2 -38 -6 0 -8 6 -5 14
4 10 0 12 -15 8 -14 -3 -16 -7 -7 -12 8 -6 5 -11 -10 -19 -21 -12 -25 -4 -24
46 0 6 -6 9 -13 6 -11 -4 -12 -9 -3 -19 14 -17 -2 -18 -20 -1 -11 10 -12 9 -3
-8 9 -16 7 -24 -10 -42 -20 -22 -20 -22 0 -20 12 0 18 6 15 14 -6 16 -2 16 32
3 18 -7 24 -7 20 1 -4 6 -1 9 6 8 8 -2 24 2 36 9 27 15 42 -3 21 -24 -17 -17
-78 -28 -78 -14 0 6 -5 10 -11 10 -5 0 -7 -4 -4 -10 3 -5 -1 -10 -9 -10 -9 0
-16 -5 -16 -11 0 -5 -5 -7 -12 -3 -8 5 -9 2 -5 -10 4 -9 3 -15 -2 -12 -11 7
-62 -44 -55 -55 3 -5 1 -9 -4 -9 -11 0 -26 49 -17 58 3 3 5 -2 5 -11 0 -10 5
-17 11 -17 6 0 8 7 5 16 -8 21 4 41 14 24 5 -7 13 -9 21 -5 20 13 -22 25 -45
13 -10 -6 -29 -8 -42 -5 -13 2 -24 0 -24 -4 0 -5 9 -9 20 -9 13 0 20 -7 20
-20 0 -11 -3 -20 -8 -20 -4 0 -13 -9 -20 -20 -10 -17 -10 -23 2 -35 8 -8 12
-24 9 -35 -4 -14 -9 -18 -16 -11 -5 5 -17 7 -26 3 -14 -5 -14 -4 -1 14 8 10
10 16 6 12 -5 -4 -15 0 -22 10 -19 24 -17 37 3 21 9 -8 14 -9 10 -2 -4 7 1 14
13 18 16 5 18 10 10 20 -8 10 -7 15 7 19 15 4 14 4 -2 3 -13 -2 -19 -9 -17
-20 2 -9 -2 -18 -8 -18 -5 -1 -14 -3 -20 -4 -5 -1 -18 -3 -27 -4 -15 -1 -16
-3 -3 -11 12 -8 12 -10 -2 -15 -9 -4 -14 -13 -11 -21 4 -10 0 -12 -11 -8 -16
6 -16 8 0 25 9 11 14 19 9 19 -4 0 -3 6 4 13 8 10 7 17 -2 27 -10 12 -9 12 3
3 9 -6 23 -7 35 -2 16 6 17 8 3 8 -25 1 -30 17 -11 32 14 12 16 12 8 0 -5 -10
-4 -12 3 -7 17 10 15 24 -5 29 -15 4 -16 5 -2 6 9 0 20 13 23 27 8 32 6 35
-22 27 -15 -4 -22 -13 -22 -30 0 -20 -4 -24 -20 -20 -11 3 -20 1 -20 -5 0 -5
-4 -6 -10 -3 -12 7 -53 -19 -44 -28 4 -4 -4 -11 -18 -16 -13 -5 -30 -16 -37
-25 -7 -9 -20 -16 -27 -16 -7 0 -28 -16 -46 -36 -18 -20 -50 -55 -71 -77 -43
-45 -59 -76 -62 -123 -1 -17 -5 -36 -9 -42 -3 -6 -2 -13 4 -17 6 -4 7 -12 3
-18 -8 -13 -10 -18 -12 -41 0 -8 -8 -17 -17 -20 -8 -3 -12 -2 -9 4 3 6 -3 10
-14 10 -11 0 -25 -9 -31 -20 -8 -15 -8 -20 2 -20 9 0 9 -3 -2 -9 -8 -6 -17 -8
-21 -5 -4 2 -4 -10 1 -28 6 -20 6 -36 0 -43 -5 -7 -7 -15 -4 -18 9 -8 11 -127
3 -127 -4 0 -4 -15 0 -33 5 -18 5 -41 1 -52 -4 -11 -5 -26 -3 -32 3 -7 0 -13
-6 -13 -6 0 -8 -6 -5 -14 3 -8 1 -23 -5 -34 -7 -13 -7 -22 1 -30 9 -9 8 -19
-2 -39 -7 -16 -13 -31 -12 -35 1 -4 -14 -12 -33 -18 -38 -13 -43 -21 -20 -40
12 -10 15 -10 15 1 0 9 5 7 11 -5 14 -22 -2 -35 -37 -31 -13 1 -21 -2 -17 -7
3 -6 -3 -7 -16 -3 -14 4 -21 2 -21 -7 0 -10 -3 -9 -10 2 -6 9 -6 18 0 24 6 6
10 19 10 30 0 10 -3 16 -6 13 -4 -3 -15 -2 -24 3 -15 8 -19 5 -24 -16 -4 -14
-4 -33 -1 -43 7 -22 -54 -54 -76 -40 -8 5 -10 9 -6 9 4 0 2 6 -5 14 -11 12
-14 12 -21 0 -5 -8 -12 -12 -18 -9 -5 4 -9 -1 -9 -9 0 -8 -8 -15 -17 -15 -10
-1 -51 -3 -90 -5 -42 -3 -73 -1 -73 5 0 5 -8 9 -17 9 -14 0 -15 2 -4 9 8 5 10
14 6 21 -10 16 -35 -14 -35 -42 0 -53 -34 -99 -125 -172 -170 -135 -211 -159
-290 -168 -109 -13 -241 -27 -290 -31 -16 -2 -30 -7 -30 -12 0 -6 4 -9 9 -7 4
1 14 -2 21 -8 9 -7 16 -6 25 5 7 8 17 15 23 15 6 0 2 -7 -9 -16 -14 -11 -16
-17 -6 -21 9 -3 7 -10 -9 -24 -25 -22 -35 -24 -44 -9 -5 8 -11 8 -20 0 -10 -8
-15 -8 -21 1 -5 8 -3 9 6 4 9 -6 11 -4 5 5 -7 11 -10 10 -19 -1 -13 -16 -75
-20 -78 -5 -4 32 -4 42 3 51 5 6 -7 10 -29 10 -21 0 -46 4 -57 9 -29 14 -127
18 -135 6 -4 -6 -17 -13 -31 -15 -13 -3 -30 -12 -36 -22 -10 -13 -13 -14 -13
-2 0 8 -3 10 -8 4 -4 -5 -18 -11 -32 -13 -14 -2 -36 -5 -50 -8 -72 -13 -119
-15 -160 -4 -25 6 -56 13 -70 15 -37 6 -85 16 -195 41 -11 3 -40 9 -65 14 -25
5 -63 13 -85 19 -121 29 -193 43 -217 42 -16 0 -28 4 -28 9 0 4 -8 7 -17 6
-19 -3 -77 18 -97 35 -6 5 -23 18 -38 30 -16 11 -28 27 -28 35 0 8 -5 14 -11
14 -5 0 -8 4 -5 9 3 5 -1 11 -9 15 -8 3 -15 12 -15 20 0 8 -9 18 -20 21 -11 3
-23 17 -26 30 -3 13 -12 26 -20 29 -8 3 -14 11 -14 18 0 13 -37 42 -55 43 -5
0 -17 -7 -25 -15 -8 -9 -23 -19 -32 -23 -10 -3 -18 -11 -18 -17 0 -5 -7 -10
-15 -10 -8 0 -15 -4 -15 -9 0 -4 -19 -21 -42 -37 -24 -16 -45 -31 -48 -34 -3
-3 -23 -18 -45 -35 -22 -16 -46 -35 -53 -42 -7 -7 -19 -13 -26 -13 -8 0 -13
-17 -15 -45 -2 -41 12 -62 21 -34 2 7 17 13 33 14 17 2 24 1 17 -2 -6 -3 -10
-9 -7 -14 4 -5 -1 -6 -9 -3 -8 3 -24 -3 -35 -13 l-21 -17 0 -1062 0 -1061 74
-6 c41 -4 85 -11 98 -16 83 -33 137 -41 267 -41 75 0 172 -4 217 -9 44 -6 125
-12 180 -16 54 -3 126 -8 159 -11 76 -7 314 -61 331 -75 25 -21 97 -16 175 12
41 15 122 39 179 54 95 26 114 27 219 22 64 -4 132 -9 151 -12 19 -3 53 -8 75
-11 21 -2 60 -14 85 -25 25 -11 46 -19 47 -17 1 2 12 -6 25 -17 13 -12 35 -27
50 -35 15 -7 30 -22 34 -32 8 -25 73 -68 104 -68 14 0 57 7 95 15 39 8 99 18
135 21 37 4 89 18 120 33 49 23 67 26 169 26 83 0 115 -3 118 -12 3 -7 10 -13
16 -13 7 0 44 -31 83 -69 88 -86 125 -98 180 -56 19 15 45 42 56 60 12 18 42
45 68 61 43 28 50 29 167 29 77 0 122 4 120 10 -2 11 5 15 26 15 9 0 9 -2 0
-8 -8 -5 -9 -13 -3 -22 8 -12 10 -12 16 3 10 27 -2 46 -29 43 -22 -3 -24 0
-20 31 5 37 -10 44 -28 12 -8 -15 -8 -19 0 -15 6 4 11 0 11 -8 0 -19 -26 -11
-34 10 -3 9 -1 12 4 9 13 -8 13 8 -1 22 -7 7 -3 18 14 37 13 14 27 23 30 19 4
-3 7 4 7 16 0 23 39 83 49 77 3 -2 12 2 19 10 7 8 10 14 6 14 -4 0 5 11 20 25
14 13 26 30 26 36 0 7 3 10 6 6 9 -9 63 46 56 57 -3 5 0 6 5 3 6 -4 33 13 61
38 27 25 53 45 56 45 3 0 14 8 24 17 10 10 33 29 51 43 18 14 39 31 46 37 8 7
17 13 21 13 4 0 22 11 40 25 18 14 36 25 39 25 4 0 19 8 33 19 40 27 133 52
149 40 9 -8 17 -6 28 5 9 9 23 16 31 16 8 0 14 5 14 11 0 5 4 8 9 4 6 -3 25 8
44 25 19 16 37 27 41 23 3 -3 6 -2 6 3 0 5 11 22 25 38 14 16 25 33 25 38 0
19 125 68 189 74 36 4 71 11 78 16 7 5 14 5 17 -1 4 -5 24 -9 45 -8 31 1 37 5
33 19 -4 16 -6 16 -30 0 -25 -16 -25 -16 -13 6 7 12 9 27 6 32 -3 5 0 12 6 16
8 5 7 9 -2 15 -7 4 -19 3 -26 -3 -7 -5 -18 -8 -25 -5 -7 3 -4 6 7 6 14 1 16 4
7 10 -10 6 -10 10 3 21 13 11 14 10 9 -5 -5 -13 -4 -16 4 -11 7 4 12 14 12 23
0 12 3 13 14 4 11 -9 16 -9 22 0 4 8 3 9 -5 5 -6 -4 -14 0 -17 8 -3 9 -10 14
-14 11 -20 -13 -21 19 -1 35 20 15 21 18 7 30 -14 11 -16 10 -10 -4 4 -11 1
-16 -10 -16 -12 0 -13 5 -7 22 6 16 4 27 -8 36 -9 7 -10 11 -3 7 17 -9 15 11
-4 40 -10 15 -12 25 -5 25 6 0 11 5 11 11 0 5 -4 8 -8 5 -5 -3 -9 1 -9 9 0 10
11 15 31 16 25 1 26 3 8 6 -18 4 -21 8 -12 18 8 9 7 17 -4 28 -8 8 -14 16 -13
18 1 3 -2 1 -7 -3 -5 -3 -19 -2 -32 2 -15 6 -24 6 -24 0 0 -15 -17 -12 -34 6
-9 8 -16 11 -16 5 0 -6 -4 -11 -10 -11 -5 0 -7 6 -4 14 3 9 -3 17 -15 21 -12
3 -19 10 -16 15 3 4 -2 10 -10 13 -8 4 -12 1 -9 -6 3 -8 -4 -13 -15 -13 -16 0
-19 6 -17 33 1 17 -1 30 -6 27 -4 -3 -8 -11 -8 -18 0 -7 -7 -13 -15 -13 -11 0
-13 6 -9 20 4 13 2 17 -5 13 -6 -4 -11 -1 -11 6 0 8 -9 20 -20 28 -14 10 -16
16 -7 22 9 6 9 9 -1 18 -6 5 -10 7 -7 4 5 -7 -24 -33 -38 -34 -4 0 -7 7 -5 16
2 10 -5 18 -15 19 -9 2 -15 0 -12 -5 3 -4 -2 -10 -10 -14 -10 -4 -15 1 -15 14
0 11 -4 20 -9 20 -5 0 -12 10 -14 23 -3 15 -5 12 -6 -11 -1 -23 3 -31 11 -26
7 4 8 3 4 -4 -10 -17 -15 -15 -26 13 -6 15 -15 23 -23 19 -8 -3 -18 3 -22 13
-6 16 -8 16 -16 -5 l-9 -23 -30 21 c-27 19 -34 19 -31 -2 1 -9 -27 -4 -36 7
-4 4 -3 6 2 2 6 -3 11 2 11 12 0 10 -6 18 -13 18 -13 0 -17 -10 -14 -34 1 -6
-3 -14 -8 -17 -11 -7 -23 22 -14 36 3 7 1 8 -5 4 -7 -4 -12 -14 -12 -23 0 -12
-3 -13 -15 -3 -8 6 -18 9 -23 6 -6 -3 -15 1 -22 9 -7 8 -17 12 -23 8 -6 -3 -7
-1 -3 5 4 7 2 12 -3 12 -6 0 -11 -5 -11 -12 0 -6 -3 -8 -6 -5 -4 4 -1 14 7 24
8 9 9 14 2 10 -6 -4 -14 -3 -17 2 -3 5 -15 7 -26 4 -12 -3 -20 0 -20 6 0 7 4
10 8 7 4 -2 14 -1 22 5 10 6 4 8 -20 5 -35 -4 -87 10 -77 20 7 8 -18 34 -32
34 -5 0 -16 9 -24 20 -8 11 -17 17 -21 12 -4 -4 -6 0 -4 8 2 8 8 19 13 23 6 5
0 5 -12 2 -18 -5 -22 -3 -17 9 3 9 1 16 -5 16 -6 0 -11 -4 -11 -10 0 -5 -5
-10 -11 -10 -6 0 -8 9 -4 23 6 17 5 20 -5 10 -10 -9 -16 -8 -29 4 -9 9 -15 19
-14 22 3 11 -19 31 -28 25 -5 -3 -9 1 -9 9 0 7 -15 21 -32 31 -18 9 -25 14
-15 12 9 -3 17 -1 17 4 0 6 -5 10 -11 10 -7 0 -18 8 -26 18 -8 10 -11 11 -7 2
7 -13 5 -13 -9 -1 -9 7 -17 17 -17 22 0 13 -37 48 -44 41 -3 -3 -6 4 -6 16 0
33 -1 36 -12 49 -6 7 -14 11 -18 8 -4 -2 -15 13 -25 35 -10 22 -20 38 -22 36
-7 -6 -50 38 -45 47 2 4 -6 19 -17 33 -11 15 -18 30 -15 35 3 5 0 9 -6 9 -6 0
-8 5 -5 10 3 6 1 10 -6 10 -7 0 -9 3 -6 7 4 3 3 11 -2 17 -14 18 -59 159 -66
207 -8 57 -17 162 -19 221 0 25 -4 44 -8 42 -3 -2 -6 13 -5 33 0 21 -3 48 -7
61 -5 14 -3 28 4 37 8 9 8 15 0 20 -6 3 -8 10 -5 15 3 5 1 11 -5 15 -6 4 -7
11 -4 17 6 10 6 72 0 168 -1 14 3 31 7 37 5 7 7 19 4 27 -3 8 -1 17 6 20 9 3
9 5 0 5 -9 1 -8 10 2 35 8 18 11 37 7 41 -4 5 -1 5 7 0 11 -6 13 -2 9 19 -3
14 -1 29 4 32 6 4 5 10 -3 15 -11 7 -10 9 4 9 10 0 17 8 17 20 0 11 6 20 13
20 9 0 9 3 -1 9 -10 6 -6 10 14 15 20 5 24 10 15 16 -17 10 -5 31 14 24 21 -8
42 17 37 43 -3 17 0 23 14 24 18 0 18 1 -1 9 -11 5 -14 9 -7 9 7 1 10 7 7 14
-4 6 1 3 10 -8 9 -11 21 -19 26 -17 6 1 8 -2 5 -7 -3 -5 1 -15 10 -22 13 -10
17 -10 25 2 5 9 9 10 9 2 0 -7 -7 -16 -16 -21 -15 -8 -15 -10 1 -15 9 -4 13
-11 10 -17 -3 -5 -2 -10 3 -10 6 0 13 7 16 16 3 8 2 12 -3 9 -5 -3 -12 -1 -15
4 -7 11 22 23 36 14 21 -12 55 -11 55 2 0 10 -9 12 -29 8 -25 -5 -28 -3 -27
18 1 17 3 19 6 7 2 -10 8 -18 13 -18 4 0 6 10 2 22 l-5 21 21 -21 c12 -12 27
-22 32 -22 16 0 12 26 -7 41 -15 12 -16 12 -10 -3 4 -10 2 -18 -4 -18 -7 0 -9
10 -5 27 5 16 3 29 -4 33 -8 5 -6 9 5 13 9 4 13 3 10 -3 -3 -6 -2 -10 4 -10 6
0 8 -7 5 -15 -4 -10 0 -15 16 -15 11 0 18 -4 15 -10 -6 -10 7 -14 33 -11 6 1
12 -2 12 -8 0 -5 -6 -12 -12 -14 -10 -4 -10 -6 0 -6 6 -1 12 -6 12 -12 0 -5
-3 -8 -7 -6 -5 3 -9 -6 -10 -20 l-1 -26 19 29 c10 16 19 24 19 18 0 -5 -6 -16
-12 -23 -10 -11 -10 -14 0 -18 18 -7 15 -23 -4 -23 -14 0 -14 -3 -4 -15 7 -8
9 -15 4 -15 -5 0 -2 -4 6 -10 9 -6 17 -5 22 3 6 9 8 9 8 0 0 -6 8 -10 18 -8 9
2 24 4 32 4 11 1 11 4 2 13 -7 7 -12 19 -12 27 1 13 4 12 15 -3 8 -11 15 -15
15 -9 0 6 6 13 13 16 8 3 14 -1 14 -9 0 -7 -4 -11 -9 -8 -4 3 -5 -3 -1 -12 6
-16 7 -16 18 0 8 10 20 14 31 10 16 -5 16 -4 4 5 -13 9 -12 11 4 11 15 0 16 2
6 15 -11 13 -11 18 0 28 10 10 11 9 5 -2 -6 -11 -4 -13 9 -8 10 4 15 3 11 -3
-3 -6 -1 -10 4 -10 6 0 11 5 11 10 0 6 6 10 13 10 7 0 13 16 14 41 2 34 0 39
-11 30 -11 -9 -16 -9 -22 0 -4 7 -3 9 4 5 6 -3 13 -2 17 4 11 18 25 11 25 -13
0 -31 10 -40 24 -21 10 13 12 13 12 -4 0 -14 -6 -19 -18 -17 -26 5 -29 -7 -7
-34 18 -22 19 -22 19 -3 0 12 4 23 8 26 10 6 9 42 -1 52 -16 16 -5 26 12 10
11 -10 25 -14 36 -10 11 4 22 2 29 -7 6 -8 20 -14 31 -14 11 0 20 -6 20 -14 0
-8 6 -16 14 -19 10 -3 12 0 8 11 -4 10 0 14 11 12 10 -1 16 -9 14 -20 -2 -11
2 -15 10 -12 7 2 12 10 10 16 -1 6 2 11 8 11 6 0 10 7 10 15 0 8 -5 15 -12 15
-6 0 -8 3 -4 7 11 12 86 10 78 -1 -3 -6 3 -4 13 4 10 8 16 10 12 4 -12 -21 33
-24 46 -3 6 10 18 19 25 19 7 0 10 -5 6 -11 -4 -7 2 -6 17 2 22 11 23 11 11
-4 -12 -14 -11 -15 12 -4 l26 12 -26 11 c-21 9 -23 12 -10 17 9 4 16 3 16 -1
0 -4 8 -8 19 -8 13 0 17 5 13 16 -5 13 -3 13 11 1 16 -13 22 -8 18 13 -1 5 5
4 13 -4 9 -7 16 -21 16 -32 0 -18 1 -18 22 1 16 16 25 18 35 10 9 -8 13 -8 13
0 0 6 -5 11 -11 11 -5 0 -8 4 -4 9 3 6 -6 8 -20 5 -16 -3 -24 0 -23 8 2 7 -4
13 -12 14 -38 3 -41 4 -33 17 4 6 -5 4 -20 -5 -33 -22 -48 -23 -40 -2 5 13 7
13 14 2 5 -7 9 -8 9 -3 0 22 -22 34 -42 24 -13 -7 -18 -6 -18 3 0 9 -3 9 -10
-2 -9 -13 -10 -13 -10 0 0 13 -1 13 -10 0 -9 -13 -10 -13 -10 0 0 13 -1 13
-10 0 -6 -10 -10 -11 -10 -2 0 16 -23 11 -32 -8 -5 -12 -8 -10 -14 8 -3 12
-11 22 -18 22 -6 0 -4 4 4 10 9 6 17 5 21 -2 4 -6 12 -7 19 -3 8 5 2 12 -20
21 -35 15 -61 15 -72 -1 -5 -6 -8 -3 -8 6 0 9 -7 20 -16 23 -8 3 -12 2 -9 -4
3 -6 2 -10 -4 -10 -5 0 -13 5 -16 10 -4 6 -11 8 -16 4 -5 -3 -6 -11 -2 -17 4
-7 -1 -6 -11 2 -13 11 -14 16 -4 22 7 5 9 9 3 9 -5 -1 -18 -6 -27 -14 -13 -10
-15 -15 -6 -24 22 -22 1 -12 -25 12 -14 13 -23 26 -20 29 8 8 -20 2 -36 -7
-10 -6 -12 -5 -7 2 4 7 2 12 -3 12 -6 0 -11 7 -11 15 0 13 18 20 43 16 4 0 7
4 7 11 0 6 9 1 19 -11 14 -15 20 -18 24 -9 3 9 9 7 21 -7 15 -19 16 -19 9 -1
-4 13 -3 17 5 12 8 -5 10 -1 5 11 -6 16 -5 17 13 3 10 -8 22 -19 26 -25 5 -6
8 -6 8 2 0 7 -8 17 -17 23 -15 9 -13 10 10 5 24 -5 27 -4 15 8 -7 8 -19 12
-27 9 -9 -3 -12 -1 -7 6 3 6 2 13 -3 16 -5 4 -12 -3 -16 -14 -3 -11 -11 -20
-16 -20 -6 0 -7 -5 -3 -12 4 -7 3 -8 -4 -4 -7 4 -12 16 -12 27 0 10 -5 19 -11
19 -6 0 -9 -7 -6 -15 4 -8 2 -17 -2 -20 -14 -8 -30 19 -27 47 2 19 -1 25 -10
21 -17 -6 -18 -23 -1 -24 6 0 3 -4 -8 -9 -11 -4 -30 -6 -42 -3 -15 3 -23 1
-23 -8 0 -11 -3 -11 -11 1 -9 12 -10 12 -5 -3 3 -10 6 -21 6 -23 0 -2 5 -4 10
-4 6 0 10 7 10 15 0 8 5 15 11 15 5 0 7 -4 4 -10 -3 -5 -1 -10 5 -10 6 0 8 -5
5 -10 -4 -6 -10 -8 -15 -5 -4 3 -14 -3 -21 -12 -8 -10 -9 -14 -2 -10 6 4 14 4
17 -1 2 -4 -4 -9 -15 -9 -11 -1 -19 4 -18 10 1 7 -3 25 -9 40 -7 16 -12 36
-12 45 0 15 -2 15 -11 2 -9 -12 -10 -12 -7 -1 6 21 28 26 28 7 0 -9 8 -16 20
-16 11 0 20 7 20 15 0 8 -6 15 -12 15 -7 0 -23 3 -35 6 -16 4 -25 1 -29 -9z
m140 -56 c3 -5 0 -11 -7 -14 -8 -3 -14 1 -14 9 0 16 13 19 21 5z m153 -126 c0
-8 -4 -12 -9 -9 -5 3 -6 10 -3 15 9 13 12 11 12 -6z m-480 -110 c0 -8 -4 -12
-9 -9 -5 3 -6 10 -3 15 9 13 12 11 12 -6z m333 -35 c0 -5 -4 -10 -10 -10 -5 0
-10 5 -10 10 0 6 5 10 10 10 6 0 10 -4 10 -10z m-646 -56 c9 -3 13 -10 10 -15
-8 -14 -21 -11 -28 6 -6 17 -4 18 18 9z m-180 -437 c16 -12 17 -21 10 -78 -8
-54 -12 -64 -29 -64 -18 0 -20 7 -20 65 -1 94 4 103 39 77z m-3037 -679 c-3
-8 -6 -5 -6 6 -1 11 2 17 5 13 3 -3 4 -12 1 -19z m63 13 c0 -17 -18 -21 -24
-6 -3 9 0 15 9 15 8 0 15 -4 15 -9z m-45 -31 c-3 -5 -12 -10 -18 -10 -7 0 -6
4 3 10 19 12 23 12 15 0z m-350 -20 c3 -6 -1 -7 -9 -4 -11 4 -16 0 -16 -12 0
-9 -3 -15 -6 -11 -9 8 3 37 15 37 5 0 13 -4 16 -10z m2270 -137 c-11 -8 -19
-19 -17 -24 1 -6 -1 -8 -6 -5 -4 2 -18 -11 -31 -30 -25 -36 -45 -43 -58 -21
-4 8 -17 19 -28 26 -18 10 -17 11 11 7 29 -3 30 -2 26 23 -5 23 -3 25 11 12 9
-7 15 -16 13 -20 -3 -4 4 -8 15 -8 12 -1 17 3 13 9 -4 6 1 17 11 25 14 10 15
13 4 14 -8 1 0 4 16 8 38 9 45 3 20 -16z m-200 -35 c-1 -14 -9 -24 -21 -26
-15 -3 -16 -1 -7 8 6 7 9 19 6 26 -3 8 1 14 9 14 9 0 14 -9 13 -22z m2115
-588 c0 -5 -5 -10 -11 -10 -5 0 -7 5 -4 10 3 6 8 10 11 10 2 0 4 -4 4 -10z
m750 -344 c0 -3 -4 -8 -10 -11 -5 -3 -10 -1 -10 4 0 6 5 11 10 11 6 0 10 -2
10 -4z m30 -221 c0 -7 -30 -13 -34 -7 -3 4 4 9 15 9 10 1 19 0 19 -2z"/>
<path d="M2220 2640 c-8 -5 -12 -12 -9 -15 4 -3 12 1 19 10 14 17 11 19 -10 5z"/>
<path d="M4060 4370 c-13 -8 -12 -10 3 -10 9 0 17 5 17 10 0 12 -1 12 -20 0z"/>
<path d="M4686 4354 c-3 -8 -2 -13 3 -10 4 3 22 1 39 -4 18 -5 34 -5 37 0 7
11 -5 18 -42 25 -22 3 -33 1 -37 -11z"/>
<path d="M3935 4349 c-18 -7 -18 -8 -2 -8 10 -1 15 -6 12 -11 -4 -6 -13 -7
-24 -1 -24 13 -43 0 -28 -19 14 -18 57 -22 54 -6 -1 6 3 10 10 9 7 -2 10 6 8
19 -6 27 -6 27 -30 17z"/>
<path d="M4650 4341 c0 -6 5 -13 10 -16 6 -3 10 1 10 9 0 9 -4 16 -10 16 -5 0
-10 -4 -10 -9z"/>
<path d="M4451 4318 c-13 -20 -12 -22 1 -11 11 10 17 10 28 0 9 -8 11 -8 6 0
-3 6 -3 13 1 16 5 2 3 2 -4 1 -6 -2 -13 1 -15 7 -2 5 -9 -1 -17 -13z"/>
<path d="M3867 4290 c8 -30 18 -32 21 -4 1 15 -4 24 -12 24 -9 0 -12 -7 -9
-20z"/>
<path d="M4404 4282 c3 -5 0 -13 -6 -15 -9 -4 -10 -6 -1 -6 17 -1 25 16 12 25
-7 4 -9 3 -5 -4z"/>
<path d="M4480 4280 c-8 -5 -12 -12 -9 -15 4 -3 12 1 19 10 14 17 11 19 -10 5z"/>
<path d="M4546 4272 c-3 -5 1 -9 9 -9 8 0 15 4 15 9 0 4 -4 8 -9 8 -6 0 -12
-4 -15 -8z"/>
<path d="M3830 4261 c0 -5 5 -13 10 -16 6 -3 10 -2 10 4 0 5 -4 13 -10 16 -5
3 -10 2 -10 -4z"/>
<path d="M4435 4260 c4 -6 11 -8 16 -5 14 9 11 15 -7 15 -8 0 -12 -5 -9 -10z"/>
<path d="M4276 4251 c-12 -5 -15 -10 -9 -14 6 -4 16 0 23 8 14 17 13 17 -14 6z"/>
<path d="M4685 4249 c-4 -6 -5 -12 -2 -15 2 -3 7 2 10 11 7 17 1 20 -8 4z"/>
<path d="M4740 4135 c0 -8 4 -15 8 -15 5 0 9 7 9 15 0 8 -4 15 -9 15 -4 0 -8
-7 -8 -15z"/>
<path d="M5983 4112 c8 -10 12 -11 15 -3 3 9 8 9 17 1 9 -8 15 -8 20 0 7 12 8
12 -32 14 -26 1 -30 -1 -20 -12z"/>
<path d="M4790 4100 c6 -11 13 -20 16 -20 2 0 0 9 -6 20 -6 11 -13 20 -16 20
-2 0 0 -9 6 -20z"/>
<path d="M5524 4108 c-4 -5 -21 -7 -38 -4 -24 4 -27 3 -13 -5 9 -6 15 -14 12
-20 -4 -5 -1 -9 4 -9 6 0 11 5 11 10 0 6 7 10 16 10 8 0 13 -4 10 -9 -3 -5 4
-11 16 -14 21 -6 21 -7 5 -25 -22 -25 -21 -32 4 -32 14 0 19 5 16 14 -3 8 2
20 11 28 13 11 14 11 8 -1 -7 -10 -3 -12 15 -7 l24 7 -23 -14 c-22 -12 -22
-15 -8 -29 9 -9 24 -14 36 -11 15 4 20 0 21 -13 0 -11 3 -14 6 -6 7 17 23 15
23 -3 0 -8 9 -15 21 -15 11 0 18 4 14 9 -3 5 -1 13 5 16 6 4 10 3 9 -2 -1 -4
-1 -17 0 -28 1 -15 3 -17 10 -7 10 17 47 11 43 -7 -1 -7 2 -10 8 -6 6 3 8 11
5 16 -4 5 -3 18 0 30 6 19 8 19 19 3 8 -10 20 -15 30 -11 9 4 16 2 16 -2 0
-10 30 -24 37 -17 4 4 -9 30 -32 67 -5 8 3 1 18 -15 15 -17 32 -44 37 -61 10
-29 10 -29 6 -2 -3 22 -1 25 10 16 8 -6 12 -15 9 -19 -2 -4 7 -5 21 -2 17 3
23 9 20 19 -3 8 -1 11 5 8 5 -4 8 -14 5 -23 -3 -11 7 -26 27 -42 17 -14 28
-20 25 -14 -4 6 -1 11 6 11 8 0 12 -5 10 -11 -6 -16 36 -39 72 -41 27 -2 31 1
26 18 -3 11 -1 18 4 14 6 -3 10 5 10 19 0 16 -5 23 -13 20 -9 -4 -10 1 -3 20
7 16 6 23 0 19 -5 -3 -12 6 -16 21 -4 17 -9 22 -14 14 -6 -9 -9 -9 -15 -1 -4
7 -1 20 7 29 12 15 11 16 -4 3 -18 -14 -21 -11 -19 24 0 15 -3 12 -15 -10
l-15 -30 6 28 c3 15 2 27 -2 26 -22 -4 -43 2 -38 11 3 5 12 7 20 3 8 -3 15 0
15 6 0 7 -16 10 -44 8 -26 -2 -42 1 -39 6 3 5 -4 6 -17 2 -17 -5 -21 -4 -15 6
6 11 5 11 -5 2 -7 -6 -19 -9 -27 -6 -8 3 -21 -3 -29 -13 -14 -17 -15 -17 -10
-1 5 17 2 19 -34 19 -42 0 -51 -2 -45 -12 8 -14 -8 -13 -22 1 -15 15 -47 3
-37 -12 4 -7 3 -9 -4 -5 -6 3 -13 -2 -16 -11 -2 -10 -4 -4 -3 12 2 24 -2 29
-17 27 -13 -2 -16 1 -10 10 6 10 5 11 -7 1 -11 -9 -19 -9 -26 -2 -6 6 -10 5
-10 -5 0 -8 4 -13 8 -11 4 3 10 -2 13 -11 3 -8 2 -13 -3 -10 -5 3 -11 -1 -15
-9 -3 -8 -1 -15 5 -15 6 0 7 -4 4 -10 -3 -5 -11 -10 -16 -10 -6 0 -7 5 -4 10
3 6 1 10 -4 10 -6 0 -11 5 -11 11 0 5 5 7 10 4 6 -3 10 -2 10 4 0 12 -40 36
-40 24 0 -4 -4 -1 -10 7 -5 8 -12 11 -17 7 -4 -5 -1 -12 7 -17 8 -5 11 -12 8
-15 -9 -10 -28 4 -28 19 0 17 -38 28 -46 14z m31 -16 c-3 -3 -11 0 -18 7 -9
10 -8 11 6 5 10 -3 15 -9 12 -12z m145 -12 c6 -11 8 -20 6 -20 -3 0 -10 9 -16
20 -6 11 -8 20 -6 20 3 0 10 -9 16 -20z m160 4 c0 -2 -7 -4 -15 -4 -8 0 -15 4
-15 10 0 5 7 7 15 4 8 -4 15 -8 15 -10z m-167 -49 c-3 -9 -8 -14 -10 -11 -3 3
-2 9 2 15 9 16 15 13 8 -4z m248 -53 c-7 -2 -18 1 -23 6 -8 8 -4 9 13 5 13 -4
18 -8 10 -11z m179 -108 c0 -8 -19 -13 -24 -6 -3 5 1 9 9 9 8 0 15 -2 15 -3z"/>
<path d="M5416 4097 c3 -10 9 -15 12 -12 3 3 0 11 -7 18 -10 9 -11 8 -5 -6z"/>
<path d="M6077 4099 c7 -9 10 -19 6 -22 -3 -4 -1 -7 5 -7 17 0 15 16 -5 31
-16 12 -17 12 -6 -2z"/>
<path d="M5440 4086 c0 -2 7 -7 16 -10 8 -3 12 -2 9 4 -6 10 -25 14 -25 6z"/>
<path d="M4683 4055 c0 -8 4 -12 9 -9 5 3 6 10 3 15 -9 13 -12 11 -12 -6z"/>
<path d="M5490 4060 c-12 -7 -12 -12 -2 -22 9 -9 12 -9 12 3 0 12 2 12 10 -1
8 -13 11 -13 27 3 9 9 12 17 6 17 -6 0 -17 2 -25 5 -7 3 -20 1 -28 -5z"/>
<path d="M6207 4063 c-3 -5 -2 -15 2 -22 7 -10 10 -10 16 -1 4 6 3 16 -3 22
-5 5 -12 6 -15 1z"/>
<path d="M5434 4048 c-4 -5 -3 -12 0 -15 3 -4 6 -1 6 6 0 7 4 10 9 6 5 -3 12
-2 15 3 3 5 -2 9 -10 9 -8 0 -17 -4 -20 -9z"/>
<path d="M6115 4050 c-3 -5 -1 -10 4 -10 6 0 11 5 11 10 0 6 -2 10 -4 10 -3 0
-8 -4 -11 -10z"/>
<path d="M3647 4016 c-7 -19 11 -32 24 -19 6 6 5 14 -4 22 -12 9 -16 8 -20 -3z"/>
<path d="M3845 4013 c2 -10 4 -22 4 -28 1 -5 5 -4 10 4 10 15 4 41 -9 41 -5 0
-7 -8 -5 -17z"/>
<path d="M6239 4020 c-1 -3 -3 -22 -4 -44 -2 -29 2 -40 14 -43 17 -4 48 -61
42 -78 -1 -5 0 -7 4 -3 11 10 56 -44 50 -59 -2 -8 0 -11 5 -8 6 3 10 -1 10 -9
0 -9 5 -16 10 -16 15 0 4 49 -16 71 -10 11 -14 22 -11 26 4 3 -4 16 -17 28
-13 12 -27 35 -30 51 -6 27 -53 96 -57 84z"/>
<path d="M4239 3993 c-13 -16 -12 -17 4 -4 16 13 21 21 13 21 -2 0 -10 -8 -17
-17z"/>
<path d="M3685 3950 c3 -5 8 -10 11 -10 2 0 4 5 4 10 0 6 -5 10 -11 10 -5 0
-7 -4 -4 -10z"/>
<path d="M4512 3896 c4 -5 4 -14 0 -20 -5 -6 -3 -21 3 -34 10 -19 14 -20 24
-8 8 10 9 16 1 21 -6 3 -8 10 -5 15 3 4 -3 14 -13 21 -9 7 -14 9 -10 5z"/>
<path d="M4554 3867 c3 -10 2 -26 -3 -36 -7 -13 -5 -17 9 -18 29 -2 34 28 9
51 -19 19 -21 19 -15 3z"/>
<path d="M3938 3863 c7 -3 16 -2 19 1 4 3 -2 6 -13 5 -11 0 -14 -3 -6 -6z"/>
<path d="M4387 3789 c4 -13 8 -18 11 -10 2 7 -1 18 -6 23 -8 8 -9 4 -5 -13z"/>
<path d="M4340 3739 c0 -5 -18 -9 -40 -9 -46 0 -130 -26 -145 -44 -5 -7 -28
-19 -50 -27 -22 -8 -55 -28 -72 -45 -31 -29 -45 -52 -24 -39 5 3 12 1 15 -4 6
-9 23 -11 105 -14 27 -1 47 -6 44 -10 -3 -5 1 -8 8 -6 27 3 40 -1 34 -11 -3
-5 3 -10 14 -10 12 0 21 -6 21 -12 0 -9 4 -8 10 2 8 13 10 12 10 -3 0 -10 4
-16 9 -13 5 4 11 0 14 -6 4 -10 7 -10 18 -1 10 10 16 9 31 -4 10 -9 18 -12 18
-7 0 6 11 10 25 10 16 0 25 -6 25 -15 0 -13 2 -14 9 -2 6 10 36 14 107 16 55
1 109 5 121 9 26 8 37 34 22 52 -6 7 -8 18 -4 24 3 5 2 10 -4 10 -5 0 -12 13
-16 30 -3 16 -22 43 -41 59 -19 17 -34 33 -34 36 0 18 -1 18 -10 5 -8 -12 -10
-10 -10 10 0 18 -3 21 -9 11 -6 -10 -13 -11 -29 -2 -28 15 -45 14 -36 -1 6
-10 5 -10 -7 -1 -8 6 -23 11 -34 9 -10 -1 -36 0 -57 4 -21 4 -38 3 -38 -1z
m246 -195 c-3 -9 -6 -18 -6 -20 0 -2 -9 -4 -20 -4 -19 0 -19 1 -3 20 21 24 38
26 29 4z"/>
<path d="M4606 3742 c-3 -5 1 -9 9 -9 8 0 12 4 9 9 -3 4 -7 8 -9 8 -2 0 -6 -4
-9 -8z"/>
<path d="M6378 3725 c2 -14 8 -28 13 -31 15 -9 10 33 -5 45 -11 9 -12 6 -8
-14z"/>
<path d="M5616 3683 c-4 -4 -13 -8 -19 -8 -41 -2 -96 -19 -101 -31 -3 -9 -11
-12 -18 -8 -8 5 -9 2 -5 -9 4 -11 -2 -22 -16 -32 -12 -8 -17 -15 -12 -15 6 0
6 -3 0 -8 -13 -9 -45 -78 -45 -97 0 -8 8 -19 19 -24 29 -16 163 -41 196 -37
17 2 36 -1 44 -8 11 -8 15 -8 18 0 2 7 12 10 21 7 12 -3 21 5 30 24 21 47 52
103 57 103 2 0 1 -7 -2 -17 -4 -11 -3 -14 5 -9 17 10 27 -21 12 -39 -10 -12
-7 -13 22 -5 45 13 53 12 39 -4 -10 -12 -8 -13 9 -9 11 3 23 10 26 15 3 5 11
5 19 -2 7 -6 21 -12 31 -14 11 -2 24 -5 29 -6 6 -1 18 -2 27 -1 17 1 17 2 0
23 -21 27 -101 108 -128 128 -22 18 -110 57 -139 62 -11 1 -23 8 -27 13 -5 6
-8 5 -8 -2 0 -9 -7 -10 -25 -3 -14 5 -25 7 -25 4 0 -4 -6 -1 -13 5 -8 6 -17 8
-21 4z m39 -73 c3 -5 -3 -10 -14 -10 -11 0 -23 5 -26 10 -3 6 3 10 14 10 11 0
23 -4 26 -10z"/>
<path d="M6397 3629 c4 -13 8 -18 11 -10 2 7 -1 18 -6 23 -8 8 -9 4 -5 -13z"/>
<path d="M4375 3470 c-3 -5 -1 -10 4 -10 6 0 11 5 11 10 0 6 -2 10 -4 10 -3 0
-8 -4 -11 -10z"/>
<path d="M4629 2925 c-4 -5 -5 -18 -4 -27 2 -10 0 -18 -4 -18 -4 0 -8 -29 -8
-65 0 -36 3 -63 7 -60 4 3 7 -3 6 -12 0 -10 8 -19 19 -21 11 -2 23 -9 27 -15
4 -7 12 -6 24 4 16 13 17 12 11 -5 -6 -15 -5 -17 7 -7 9 8 21 8 38 2 26 -10
78 -8 96 3 6 3 28 7 49 8 21 0 49 5 62 10 14 5 28 5 35 -1 14 -12 33 -9 65 8
20 11 33 11 80 -4 31 -10 64 -22 75 -27 13 -7 16 -6 10 3 -5 9 -2 10 9 6 21
-8 22 6 2 23 -18 15 -9 34 13 25 9 -3 13 -3 10 1 -4 4 -3 15 2 25 8 14 4 22
-16 38 -15 12 -33 21 -41 21 -21 0 -77 -28 -101 -50 -12 -11 -25 -20 -31 -20
-5 0 -11 -5 -13 -10 -6 -20 -67 3 -107 40 -55 50 -114 69 -149 49 -33 -18 -39
-45 -16 -70 14 -16 15 -19 2 -14 -9 4 -18 0 -21 -9 -5 -13 -12 -13 -39 -4 -60
20 -74 45 -91 163 -1 11 -5 16 -8 10z"/>
<path d="M1927 2694 c6 -17 8 -17 21 -1 8 10 6 13 -8 14 -13 1 -17 -3 -13 -13z"/>
<path d="M4863 2463 c-15 -12 -35 -29 -45 -37 -9 -8 -19 -12 -22 -8 -3 3 -6 0
-6 -6 0 -6 -9 -14 -20 -17 -11 -3 -20 -12 -20 -19 0 -16 -48 -41 -83 -45 -26
-2 -70 -49 -72 -75 0 -13 3 -22 7 -20 4 3 8 0 8 -5 0 -6 5 -11 11 -11 5 0 7 5
3 12 -4 7 -3 8 4 4 9 -5 9 -13 2 -26 -8 -16 -6 -22 15 -36 14 -9 23 -19 21
-23 -3 -4 4 -7 14 -7 10 0 17 4 14 7 -2 4 0 11 6 14 6 4 10 3 9 -2 -4 -22 3
-31 29 -39 15 -4 30 -7 35 -6 4 1 7 -2 7 -8 0 -5 3 -9 8 -8 4 1 25 -7 47 -19
22 -11 56 -23 76 -27 19 -3 45 -15 56 -26 12 -10 24 -16 27 -12 4 3 -4 12 -16
19 -20 11 -16 12 37 8 38 -3 80 1 115 11 30 8 61 16 68 16 6 1 12 6 12 11 0 5
7 6 16 3 11 -4 15 -2 11 8 -3 8 -1 17 6 19 30 11 -5 17 -44 8 -24 -6 -45 -7
-47 -2 -3 9 -56 6 -73 -4 -7 -5 -10 -4 -6 2 8 12 -45 25 -53 14 -9 -14 -39
-20 -46 -10 -3 5 -13 7 -22 5 -10 -3 -30 1 -46 9 -15 8 -31 13 -35 11 -4 -3
-7 4 -8 14 -1 13 4 16 19 12 14 -3 19 -1 14 6 -5 8 -2 10 8 6 9 -3 13 -11 10
-16 -4 -6 1 -8 14 -4 40 13 62 15 62 5 0 -5 5 -9 11 -9 6 0 9 7 5 15 -5 15 7
19 49 16 15 -1 17 0 7 7 -11 7 -11 10 2 15 9 4 16 2 16 -3 0 -6 5 -10 11 -10
8 0 8 4 -1 15 -9 11 -17 12 -30 5 -10 -6 -30 -10 -44 -10 -14 0 -27 -4 -31
-10 -3 -5 -12 -7 -19 -4 -8 3 -17 1 -20 -5 -4 -6 -14 -4 -26 7 -20 17 -28 38
-10 27 5 -3 54 -1 109 6 105 13 176 7 165 -14 -5 -9 -3 -8 7 1 18 17 46 15 53
-4 5 -12 9 -14 20 -5 19 16 41 -10 24 -27 -17 -17 -19 -42 -2 -35 8 3 14 9 14
15 0 5 5 6 10 3 6 -3 10 -2 10 2 0 13 64 11 72 -2 5 -6 8 -6 8 3 0 6 6 12 14
12 14 0 13 7 -10 73 -4 10 -21 24 -38 32 -33 16 -68 36 -76 46 -3 3 -12 10
-21 15 -9 5 -34 29 -56 54 -21 25 -45 46 -53 48 -60 14 -68 13 -86 -6 -17 -18
-22 -19 -44 -7 -14 8 -20 14 -15 15 6 0 -3 8 -20 17 -45 24 -98 23 -132 -4z
m-93 -309 c0 -3 -7 -1 -15 6 -8 7 -15 17 -15 22 0 5 7 3 15 -6 8 -8 15 -18 15
-22z"/>
<path d="M7565 2300 c-3 -5 -12 -7 -20 -3 -10 3 -15 -1 -14 -13 0 -13 2 -14 6
-5 4 9 8 10 12 3 4 -7 11 -4 19 8 7 11 10 20 8 20 -3 0 -7 -4 -11 -10z"/>
<path d="M7475 2290 c-3 -6 1 -7 9 -4 18 7 21 14 7 14 -6 0 -13 -4 -16 -10z"/>
<path d="M4080 2190 c18 -12 30 -13 30 -2 0 4 -10 9 -22 9 -18 2 -20 0 -8 -7z"/>
<path d="M4155 2130 c3 -5 8 -10 11 -10 2 0 4 5 4 10 0 6 -5 10 -11 10 -5 0
-7 -4 -4 -10z"/>
<path d="M4700 2110 c-9 -6 -10 -10 -3 -10 6 0 15 5 18 10 8 12 4 12 -15 0z"/>
<path d="M5243 2072 c-22 -3 -33 -22 -13 -22 6 0 9 -6 8 -12 -2 -8 10 -13 32
-14 19 0 34 -6 33 -11 -4 -17 35 -3 41 15 3 10 9 23 12 30 3 6 1 12 -5 12 -6
0 -11 -6 -11 -14 0 -9 -7 -12 -20 -9 -11 3 -20 9 -20 13 0 10 -30 16 -57 12z"/>
<path d="M4480 2041 c0 -6 5 -13 10 -16 6 -3 10 1 10 9 0 9 -4 16 -10 16 -5 0
-10 -4 -10 -9z"/>
<path d="M4655 2020 c3 -5 8 -10 11 -10 2 0 4 5 4 10 0 6 -5 10 -11 10 -5 0
-7 -4 -4 -10z"/>
<path d="M5405 1950 c-3 -6 1 -7 9 -4 18 7 21 14 7 14 -6 0 -13 -4 -16 -10z"/>
<path d="M5595 1928 c-130 -32 -165 -43 -210 -65 -105 -54 -154 -96 -147 -128
3 -19 0 -25 -13 -25 -15 0 -15 -1 -1 -16 14 -14 14 -18 1 -45 -9 -16 -13 -40
-11 -54 3 -17 1 -23 -6 -19 -7 5 -9 1 -5 -9 5 -12 -1 -19 -19 -23 -14 -4 -22
-9 -17 -13 18 -12 23 -41 7 -41 -9 0 -14 -7 -12 -17 3 -20 -19 -25 -42 -9 -12
8 -13 7 -3 -3 8 -10 9 -20 0 -38 -7 -16 -13 -20 -18 -11 -4 7 -3 19 4 28 6 8
7 12 3 8 -5 -4 -15 -3 -21 2 -9 8 -14 6 -19 -5 -3 -9 1 -18 9 -21 8 -4 15 -12
15 -20 0 -8 4 -14 10 -14 5 0 7 -6 5 -12 -4 -9 39 -23 142 -47 82 -19 152 -35
158 -35 5 -1 22 24 37 54 15 30 35 65 46 76 25 29 62 40 74 23 7 -10 8 -6 4
13 -3 15 -1 30 4 33 6 4 10 3 9 -2 -5 -29 3 -43 25 -43 14 0 27 4 31 10 3 5
13 6 22 3 12 -5 14 -3 8 7 -6 10 -4 12 9 7 10 -4 23 -7 29 -7 7 0 6 -4 -3 -9
-8 -6 -18 -7 -22 -5 -5 3 -11 -1 -14 -10 -3 -8 -12 -12 -19 -10 -7 3 -16 0
-21 -7 -4 -7 -3 -10 2 -6 16 9 30 -5 52 -55 25 -58 42 -60 87 -13 28 31 36 34
58 26 14 -5 28 -7 31 -4 6 6 10 -21 7 -40 -1 -5 4 -5 10 -1 8 5 10 -1 7 -19
-3 -15 -1 -24 3 -21 5 3 9 0 9 -7 0 -18 10 -5 15 20 6 31 15 42 28 35 7 -3 5
0 -4 8 -16 14 -33 48 -31 61 1 4 -2 7 -8 7 -5 0 -10 4 -10 10 0 5 7 7 15 4 21
-8 19 3 -5 28 -15 17 -17 24 -8 30 10 6 10 10 -2 18 -21 13 -23 13 -47 -10
-14 -12 -23 -15 -25 -8 -3 7 -14 1 -28 -13 -12 -13 -20 -18 -16 -11 5 7 1 12
-9 12 -9 0 -13 -5 -10 -10 8 -13 -12 -40 -29 -40 -8 0 -7 3 1 8 7 5 9 13 3 21
-5 9 -3 24 7 40 12 21 12 22 1 9 -8 -10 -19 -14 -23 -10 -5 4 -5 2 -1 -5 5 -9
-2 -12 -24 -10 -20 1 -30 7 -30 18 0 17 -26 33 -39 24 -15 -9 -32 45 -21 65 5
10 10 28 10 40 0 12 4 18 10 15 5 -3 7 0 4 8 -3 8 2 17 12 21 11 4 13 10 6 19
-7 8 -3 26 12 58 11 26 22 51 23 57 23 110 23 127 -7 128 -14 1 -43 -3 -65 -8z
m32 -415 c-4 -3 -2 -12 4 -19 15 -18 3 -34 -24 -33 -16 0 -18 2 -7 7 9 4 15
14 15 22 -1 18 4 30 12 30 4 0 3 -3 0 -7z m273 -127 c0 -3 -4 -8 -10 -11 -5
-3 -10 -1 -10 4 0 6 5 11 10 11 6 0 10 -2 10 -4z"/>
<path d="M7530 1790 c0 -11 4 -20 9 -20 6 0 9 9 8 20 -1 11 -5 20 -9 20 -4 0
-8 -9 -8 -20z"/>
<path d="M5052 1775 c-7 -8 -9 -15 -4 -15 5 0 15 7 22 15 16 19 -1 19 -18 0z"/>
<path d="M5610 1611 c0 -5 7 -12 16 -15 14 -5 15 -4 4 9 -14 17 -20 19 -20 6z"/>
<path d="M5603 1571 c1 -11 9 -22 19 -24 16 -5 16 -3 1 19 -19 29 -22 30 -20
5z"/>
<path d="M5061 1544 c0 -11 3 -14 6 -6 3 7 2 16 -1 19 -3 4 -6 -2 -5 -13z"/>
<path d="M5885 1530 c-8 -13 5 -13 25 0 13 8 13 10 -2 10 -9 0 -20 -4 -23 -10z"/>
<path d="M6194 1305 c-17 -13 -13 -14 49 -15 52 0 66 3 61 13 -6 9 -4 9 7 1 8
-6 28 -14 44 -17 17 -3 39 -9 50 -12 11 -4 2 5 -20 19 -33 21 -52 26 -106 26
-42 0 -72 -5 -85 -15z"/>
<path d="M6435 1250 c3 -5 8 -10 11 -10 2 0 4 5 4 10 0 6 -5 10 -11 10 -5 0
-7 -4 -4 -10z"/>
<path d="M6490 1157 c0 -8 9 -20 38 -52 7 -8 10 -15 6 -15 -4 0 0 -8 8 -17 24
-28 49 -83 43 -93 -3 -6 -2 -10 3 -10 5 0 9 -6 10 -12 3 -36 26 -111 29 -97 6
23 -23 127 -50 186 -21 45 -87 129 -87 110z"/>
<path d="M6606 1113 c18 -43 34 -64 34 -44 0 13 -38 81 -45 81 -2 0 3 -17 11
-37z"/>
<path d="M6668 994 c5 -9 7 -26 4 -37 -4 -15 -2 -18 8 -12 10 6 11 4 4 -6 -18
-28 -13 -149 6 -149 6 0 10 15 10 33 0 25 3 29 11 17 9 -12 10 -12 5 3 -3 10
-6 30 -6 43 0 17 -4 23 -12 18 -7 -5 -8 -3 -3 5 9 15 -14 101 -27 101 -5 0 -5
-6 0 -16z"/>
<path d="M6628 815 c2 -14 6 -25 8 -25 2 0 4 11 4 25 0 14 -4 25 -9 25 -4 0
-6 -11 -3 -25z"/>
<path d="M6637 668 c-3 -51 -13 -113 -21 -137 -19 -51 -19 -51 -8 -51 20 0 35
63 40 168 2 61 3 112 0 112 -3 0 -8 -42 -11 -92z"/>
<path d="M3746 543 c-6 -14 -5 -15 5 -6 7 7 10 15 7 18 -3 3 -9 -2 -12 -12z"/>
<path d="M3857 479 c4 -13 8 -18 11 -10 2 7 -1 18 -6 23 -8 8 -9 4 -5 -13z"/>
<path d="M3863 443 c-22 -8 -14 -30 12 -35 14 -3 25 -1 25 6 0 6 5 4 10 -4 6
-9 10 -10 10 -3 0 6 -5 15 -10 18 -6 4 -8 11 -5 16 4 5 2 9 -3 9 -6 0 -12 -7
-16 -15 -3 -8 -11 -15 -18 -15 -9 0 -9 3 2 10 16 10 11 20 -7 13z"/>
<path d="M3941 424 c0 -11 3 -14 6 -6 3 7 2 16 -1 19 -3 4 -6 -2 -5 -13z"/>
<path d="M4572 214 c-10 -11 -9 -15 6 -23 20 -10 102 7 102 22 0 4 -4 6 -9 2
-5 -3 -12 -1 -16 5 -3 5 -12 10 -18 10 -7 0 -6 -4 3 -10 13 -8 12 -10 -2 -10
-10 0 -18 6 -18 13 0 8 -4 7 -10 -3 -7 -11 -12 -12 -17 -4 -6 9 -11 8 -21 -2z"/>
</g>
</svg>
